<svg xmlns="http://www.w3.org/2000/svg" viewBox="0 0 200 200" width="200" height="200">
  <defs>
    <radialGradient id="avatarBg" cx="50%" cy="40%" r="60%">
      <stop offset="0%" style="stop-color:#d1fae5;stop-opacity:1" />
      <stop offset="100%" style="stop-color:#6ee7b7;stop-opacity:1" />
    </radialGradient>
    <clipPath id="circle">
      <circle cx="100" cy="100" r="100"/>
    </clipPath>
  </defs>

  <circle cx="100" cy="100" r="100" fill="url(#avatarBg)"/>

  <!-- Head -->
  <circle cx="100" cy="72" r="28" fill="#065f46" opacity="0.7"/>

  <!-- Body -->
  <path d="M 50 165 Q 50 120 100 115 Q 150 120 150 165 L 150 200 L 50 200 Z" fill="#065f46" opacity="0.55"/>

  <!-- Subtle heart -->
  <g transform="translate(100, 155)" fill="#fbbf24" opacity="0.6">
    <path d="M 0 -8 C 0 -12 -5 -16 -9 -12 C -13 -16 -18 -12 -18 -8 C -18 -2 0 8 0 8 C 0 8 18 -2 18 -8 C 18 -12 13 -16 9 -12 C 5 -16 0 -12 0 -8 Z" transform="scale(0.55)"/>
  </g>

  <!-- Border ring -->
  <circle cx="100" cy="100" r="97" fill="none" stroke="#059669" stroke-width="3" opacity="0.4"/>
</svg>
