<svg xmlns="http://www.w3.org/2000/svg" width="320" height="320" viewBox="0 0 128 128">
<rect width="128" height="128" rx="32" fill="#fff1f6"/>
<circle cx="64" cy="56" r="36" fill="#fff" opacity=".35"/>
<path d="M54 92c-14-8-23-22-23-39 0-20 14-36 33-36s33 16 33 36c0 17-9 31-23 39" fill="#1f2937" opacity=".92"/>
<circle cx="64" cy="54" r="24" fill="#ffd7bd"/>
<path d="M43 111c5-18 18-29 21-29s17 11 21 29" fill="#f4a3be"/>
<path d="M46 52c4-4 8-4 12 0" stroke="#111827" stroke-width="3" stroke-linecap="round" fill="none"/>
<path d="M70 52c4-4 8-4 12 0" stroke="#111827" stroke-width="3" stroke-linecap="round" fill="none"/>
<circle cx="53" cy="59" r="2.4" fill="#111827"/>
<circle cx="76" cy="59" r="2.4" fill="#111827"/>
<path d="M57 71c5 4 11 4 16 0" stroke="#b45309" stroke-width="3" stroke-linecap="round" fill="none"/>
<circle cx="95" cy="33" r="8" fill="#f59e0b" opacity=".9"/>
</svg>